HIERARCHY
ROOT mixamorig:Hips
{
	OFFSET -0.000008 104.274872 1.554316
	CHANNELS 6 Xposition Yposition Zposition Xrotation Yrotation Zrotation
	JOINT mixamorig:Spine
	{
		OFFSET -0.000005 10.181587 0.131521
		CHANNELS 6 Xposition Yposition Zposition Xrotation Yrotation Zrotation
		JOINT mixamorig:Spine1
		{
			OFFSET -0.000000 9.893967 -1.470711
			CHANNELS 3 Xrotation Yrotation Zrotation
			JOINT mixamorig:Spine2
			{
				OFFSET -0.000000 9.220772 -1.370643
				CHANNELS 3 Xrotation Yrotation Zrotation
				JOINT mixamorig:Neck
				{
					OFFSET 0.000001 16.740387 -2.049035
					CHANNELS 6 Xposition Yposition Zposition Xrotation Yrotation Zrotation
					JOINT mixamorig:Head
					{
						OFFSET 0.000000 9.617889 1.685008
						CHANNELS 6 Xposition Yposition Zposition Xrotation Yrotation Zrotation
						JOINT mixamorig:HeadTop_End
						{
							OFFSET 0.000002 22.037369 7.501095
							CHANNELS 6 Xposition Yposition Zposition Xrotation Yrotation Zrotation
							End Site
							{
								OFFSET 0.000002 23.106552 -2.828258
							}
						}
					}
				}
				JOINT mixamorig:RightShoulder
				{
					OFFSET -4.569969 11.014908 -2.160884
					CHANNELS 6 Xposition Yposition Zposition Xrotation Yrotation Zrotation
					JOINT mixamorig:RightArm
					{
						OFFSET -10.592846 -0.524811 -2.232097
						CHANNELS 3 Xrotation Yrotation Zrotation
						JOINT mixamorig:RightForeArm
						{
							OFFSET -27.841518 0.000000 -0.000004
							CHANNELS 3 Xrotation Yrotation Zrotation
							JOINT mixamorig:RightHand
							{
								OFFSET -28.328838 0.000000 0.000019
								CHANNELS 3 Xrotation Yrotation Zrotation
								JOINT mixamorig:RightHandThumb1
								{
									OFFSET -2.464806 -1.573990 2.681852
									CHANNELS 6 Xposition Yposition Zposition Xrotation Yrotation Zrotation
									JOINT mixamorig:RightHandThumb2
									{
										OFFSET -3.215187 -1.872772 1.924281
										CHANNELS 3 Xrotation Yrotation Zrotation
										JOINT mixamorig:RightHandThumb3
										{
											OFFSET -2.654839 -1.527985 1.512611
											CHANNELS 3 Xrotation Yrotation Zrotation
											JOINT mixamorig:RightHandThumb4
											{
												OFFSET -2.018822 -1.152008 1.108052
												CHANNELS 3 Xrotation Yrotation Zrotation
												End Site
												{
													OFFSET -1.888100 -1.145340 1.324313
												}
											}
										}
									}
								}
								JOINT mixamorig:RightHandIndex1
								{
									OFFSET -9.108284 -0.517868 2.259834
									CHANNELS 6 Xposition Yposition Zposition Xrotation Yrotation Zrotation
									JOINT mixamorig:RightHandIndex2
									{
										OFFSET -3.699997 0.000015 0.001215
										CHANNELS 3 Xrotation Yrotation Zrotation
										JOINT mixamorig:RightHandIndex3
										{
											OFFSET -2.850006 0.000000 -0.000521
											CHANNELS 3 Xrotation Yrotation Zrotation
											JOINT mixamorig:RightHandIndex4
											{
												OFFSET -2.772186 0.000000 -0.000020
												CHANNELS 3 Xrotation Yrotation Zrotation
												End Site
												{
													OFFSET -2.772186 0.000000 -0.000502
												}
											}
										}
									}
								}
								JOINT mixamorig:RightHandMiddle1
								{
									OFFSET -9.532501 -0.000046 -0.000025
									CHANNELS 6 Xposition Yposition Zposition Xrotation Yrotation Zrotation
									JOINT mixamorig:RightHandMiddle2
									{
										OFFSET -3.699997 0.000015 0.003713
										CHANNELS 3 Xrotation Yrotation Zrotation
										JOINT mixamorig:RightHandMiddle3
										{
											OFFSET -2.949997 0.000000 -0.002054
											CHANNELS 3 Xrotation Yrotation Zrotation
											JOINT mixamorig:RightHandMiddle4
											{
												OFFSET -2.946632 0.000015 -0.000155
												CHANNELS 3 Xrotation Yrotation Zrotation
												End Site
												{
													OFFSET -2.946625 0.000000 -0.001135
												}
											}
										}
									}
								}
								JOINT mixamorig:RightHandRing1
								{
									OFFSET -9.103592 -0.043076 -1.865134
									CHANNELS 6 Xposition Yposition Zposition Xrotation Yrotation Zrotation
									JOINT mixamorig:RightHandRing2
									{
										OFFSET -3.379272 0.000000 -0.001054
										CHANNELS 3 Xrotation Yrotation Zrotation
										JOINT mixamorig:RightHandRing3
										{
											OFFSET -2.889687 0.000000 0.000379
											CHANNELS 3 Xrotation Yrotation Zrotation
											JOINT mixamorig:RightHandRing4
											{
												OFFSET -2.638817 0.000000 0.000942
												CHANNELS 3 Xrotation Yrotation Zrotation
												End Site
												{
													OFFSET -2.638802 0.000000 0.005160
												}
											}
										}
									}
								}
								JOINT mixamorig:RightHandPinky1
								{
									OFFSET -8.076675 -0.486710 -3.806279
									CHANNELS 6 Xposition Yposition Zposition Xrotation Yrotation Zrotation
									JOINT mixamorig:RightHandPinky2
									{
										OFFSET -3.599998 -0.000031 -0.003747
										CHANNELS 3 Xrotation Yrotation Zrotation
										JOINT mixamorig:RightHandPinky3
										{
											OFFSET -2.099991 -0.000015 -0.005740
											CHANNELS 3 Xrotation Yrotation Zrotation
											JOINT mixamorig:RightHandPinky4
											{
												OFFSET -2.115776 -0.000015 -0.003680
												CHANNELS 3 Xrotation Yrotation Zrotation
												End Site
												{
													OFFSET -2.115784 -0.000015 -0.003507
												}
											}
										}
									}
								}
							}
						}
					}
				}
				JOINT mixamorig:LeftShoulder
				{
					OFFSET 4.570447 11.014709 -2.160855
					CHANNELS 6 Xposition Yposition Zposition Xrotation Yrotation Zrotation
					JOINT mixamorig:LeftArm
					{
						OFFSET 10.592369 -0.524597 -2.232120
						CHANNELS 3 Xrotation Yrotation Zrotation
						JOINT mixamorig:LeftForeArm
						{
							OFFSET 27.841522 -0.000031 0.000023
							CHANNELS 3 Xrotation Yrotation Zrotation
							JOINT mixamorig:LeftHand
							{
								OFFSET 28.328835 -0.000031 0.000018
								CHANNELS 3 Xrotation Yrotation Zrotation
								JOINT mixamorig:LeftHandThumb1
								{
									OFFSET 2.466141 -1.576187 2.681734
									CHANNELS 6 Xposition Yposition Zposition Xrotation Yrotation Zrotation
									JOINT mixamorig:LeftHandThumb2
									{
										OFFSET 3.217804 -1.872055 1.916487
										CHANNELS 3 Xrotation Yrotation Zrotation
										JOINT mixamorig:LeftHandThumb3
										{
											OFFSET 2.656013 -1.528809 1.514505
											CHANNELS 3 Xrotation Yrotation Zrotation
											JOINT mixamorig:LeftHandThumb4
											{
												OFFSET 2.020889 -1.154068 1.115134
												CHANNELS 3 Xrotation Yrotation Zrotation
												End Site
												{
													OFFSET 1.908852 -1.150833 1.300489
												}
											}
										}
									}
								}
								JOINT mixamorig:LeftHandIndex1
								{
									OFFSET 9.109306 -0.518036 2.259871
									CHANNELS 6 Xposition Yposition Zposition Xrotation Yrotation Zrotation
									JOINT mixamorig:LeftHandIndex2
									{
										OFFSET 3.699997 -0.000015 -0.000323
										CHANNELS 3 Xrotation Yrotation Zrotation
										JOINT mixamorig:LeftHandIndex3
										{
											OFFSET 2.850006 -0.000015 0.000350
											CHANNELS 3 Xrotation Yrotation Zrotation
											JOINT mixamorig:LeftHandIndex4
											{
												OFFSET 2.774864 0.000000 -0.000027
												CHANNELS 3 Xrotation Yrotation Zrotation
												End Site
												{
													OFFSET 2.774872 -0.000015 -0.000099
												}
											}
										}
									}
								}
								JOINT mixamorig:LeftHandMiddle1
								{
									OFFSET 9.533401 0.000031 0.000044
									CHANNELS 6 Xposition Yposition Zposition Xrotation Yrotation Zrotation
									JOINT mixamorig:LeftHandMiddle2
									{
										OFFSET 3.699997 -0.000015 -0.000231
										CHANNELS 3 Xrotation Yrotation Zrotation
										JOINT mixamorig:LeftHandMiddle3
										{
											OFFSET 2.950005 0.000000 -0.000060
											CHANNELS 3 Xrotation Yrotation Zrotation
											JOINT mixamorig:LeftHandMiddle4
											{
												OFFSET 2.952858 0.000000 0.000063
												CHANNELS 3 Xrotation Yrotation Zrotation
												End Site
												{
													OFFSET 2.952866 0.000000 0.000228
												}
											}
										}
									}
								}
								JOINT mixamorig:LeftHandRing1
								{
									OFFSET 9.104530 -0.043030 -1.865074
									CHANNELS 6 Xposition Yposition Zposition Xrotation Yrotation Zrotation
									JOINT mixamorig:LeftHandRing2
									{
										OFFSET 3.150002 -0.000015 0.000042
										CHANNELS 3 Xrotation Yrotation Zrotation
										JOINT mixamorig:LeftHandRing3
										{
											OFFSET 2.949997 0.000000 0.000037
											CHANNELS 3 Xrotation Yrotation Zrotation
											JOINT mixamorig:LeftHandRing4
											{
												OFFSET 2.644318 -0.000015 0.000059
												CHANNELS 3 Xrotation Yrotation Zrotation
												End Site
												{
													OFFSET 2.644318 0.000000 0.000121
												}
											}
										}
									}
								}
								JOINT mixamorig:LeftHandPinky1
								{
									OFFSET 8.077782 -0.486877 -3.806256
									CHANNELS 6 Xposition Yposition Zposition Xrotation Yrotation Zrotation
									JOINT mixamorig:LeftHandPinky2
									{
										OFFSET 3.599968 0.000031 0.014726
										CHANNELS 3 Xrotation Yrotation Zrotation
										JOINT mixamorig:LeftHandPinky3
										{
											OFFSET 2.099991 0.000015 0.007705
											CHANNELS 3 Xrotation Yrotation Zrotation
											JOINT mixamorig:LeftHandPinky4
											{
												OFFSET 2.125511 0.000015 0.007514
												CHANNELS 3 Xrotation Yrotation Zrotation
												End Site
												{
													OFFSET 2.125526 0.000015 0.006258
												}
											}
										}
									}
								}
							}
						}
					}
				}
			}
		}
	}
	JOINT mixamorig:RightUpLeg
	{
		OFFSET -8.207787 -6.751671 -1.599560
		CHANNELS 6 Xposition Yposition Zposition Xrotation Yrotation Zrotation
		JOINT mixamorig:RightLeg
		{
			OFFSET -0.000001 -44.370113 0.345939
			CHANNELS 3 Xrotation Yrotation Zrotation
			JOINT mixamorig:RightFoot
			{
				OFFSET 0.000001 -44.423676 -3.043536
				CHANNELS 3 Xrotation Yrotation Zrotation
				JOINT mixamorig:RightToeBase
				{
					OFFSET -0.000003 -8.728670 10.710561
					CHANNELS 3 Xrotation Yrotation Zrotation
					JOINT mixamorig:RightToe_End
					{
						OFFSET -0.000003 -0.000677 9.278120
						CHANNELS 3 Xrotation Yrotation Zrotation
						End Site
						{
							OFFSET -0.000003 -0.000677 9.278120
						}
					}
				}
			}
		}
	}
	JOINT mixamorig:LeftUpLeg
	{
		OFFSET 8.207791 -6.751701 -1.599555
		CHANNELS 6 Xposition Yposition Zposition Xrotation Yrotation Zrotation
		JOINT mixamorig:LeftLeg
		{
			OFFSET -0.000002 -44.370033 0.346958
			CHANNELS 3 Xrotation Yrotation Zrotation
			JOINT mixamorig:LeftFoot
			{
				OFFSET 0.000000 -44.423653 -3.044392
				CHANNELS 3 Xrotation Yrotation Zrotation
				JOINT mixamorig:LeftToeBase
				{
					OFFSET -0.000003 -8.728668 10.710560
					CHANNELS 3 Xrotation Yrotation Zrotation
					JOINT mixamorig:LeftToe_End
					{
						OFFSET -0.000003 -0.000677 9.278137
						CHANNELS 3 Xrotation Yrotation Zrotation
						End Site
						{
							OFFSET -0.000003 -0.000677 9.278137
						}
					}
				}
			}
		}
	}
}
MOTION
Frames: 4
Frame Time: 0.033333
-3.221468 100.949005 11.758755 -1.742648 3.495502 -2.188951 -0.000006 10.181582 0.131520 0.066023 1.058617 0.419106 -0.077252 0.565002 0.076791 -0.076678 0.565540 0.073511 0.000000 16.740374 -2.049036 4.721402 -1.770443 2.371473 0.000000 9.617891 1.685005 -6.334192 -6.475091 -0.601522 0.000002 22.037354 7.501101 0.000001 -0.000000 -0.000000 -4.569972 11.014909 -2.160886 0.558536 5.468002 9.755112 2.362964 -8.279925 64.487170 -1.221830 8.520997 0.091044 41.530866 30.377567 -13.681076 -2.464795 -1.573972 2.681840 -13.065741 -4.318840 -17.283172 15.071217 -19.096253 4.231456 -4.683983 6.864549 -1.566190 -0.000002 0.000000 0.000000 -9.108276 -0.517868 2.259837 -2.811239 10.716288 6.699421 0.041467 -0.741013 6.333394 0.026134 -0.614248 4.963510 0.000002 -0.000000 -0.000001 -9.532501 -0.000043 -0.000022 0.209484 -1.631382 12.013102 0.376726 -2.204696 19.239695 0.153085 -1.502998 12.116297 -0.000003 -0.000000 0.000001 -9.103582 -0.043084 -1.865128 2.393334 -6.390739 17.351672 0.806318 -3.273054 27.756946 0.066007 -1.859085 14.730561 0.000001 -0.000005 -0.000004 -8.076685 -0.486712 -3.806279 4.125990 -9.452012 19.004639 1.079965 -3.789725 33.616596 0.286915 -2.139500 17.321175 0.000004 -0.000000 0.000003 4.570449 11.014727 -2.160856 0.535800 3.344057 -7.167172 -9.178379 4.923394 -66.014482 -0.028308 -0.198823 -0.000008 46.644158 -8.859765 9.348151 2.466125 -1.576219 2.681734 -5.654377 6.501973 2.244849 18.653463 15.875728 1.172154 -7.865356 -6.305010 6.315892 0.000001 0.000002 -0.000003 9.109306 -0.518043 2.259871 0.240912 1.982067 2.208354 0.177353 1.560769 -12.948244 0.056174 0.872513 -7.313348 -0.000003 0.000000 -0.000002 9.533416 0.000026 0.000042 1.386111 4.241462 -18.382092 0.138453 1.380131 -11.495362 0.096054 1.149756 -9.553053 0.000001 -0.000000 -0.000000 9.104527 -0.043050 -1.865075 3.531599 6.600260 -31.786522 0.314489 2.060343 -17.343974 0.190835 1.612276 -13.487891 -0.000006 -0.000002 0.000002 8.077801 -0.486887 -3.806260 5.671106 7.863901 -51.839739 0.685255 -1.303827 -24.356400 0.153949 1.254739 -10.551027 -0.000003 -0.000003 -0.000001 -8.207790 -6.751665 -1.599558 -6.193436 -2.528942 5.038269 22.812875 -9.234495 -5.838374 -13.120518 -21.903869 5.362397 -1.096237 -0.000002 -0.000006 0.000000 -0.000000 -0.000000 8.207791 -6.751718 -1.599554 -9.218602 12.329419 7.634627 26.874255 -5.509271 2.335414 -16.839582 0.820654 -3.589468 -2.707103 -0.000012 -0.000002 0.000000 -0.000000 0.000000 
-3.179382 100.943863 11.793700 -1.706089 3.546121 -2.162280 -0.000005 10.181573 0.131521 0.083469 1.053490 0.412645 -0.068058 0.562158 0.074002 -0.067481 0.562664 0.070745 0.000001 16.740389 -2.049032 4.652112 -1.761537 2.343005 0.000001 9.617899 1.685007 -6.279195 -6.433486 -0.632779 0.000002 22.037338 7.501093 0.000002 -0.000000 -0.000000 -4.569970 11.014905 -2.160882 0.558596 5.463358 9.756221 2.332083 -8.338223 64.470306 -1.217925 8.494127 0.090460 41.541026 30.340797 -13.638753 -2.464799 -1.573970 2.681850 -13.063218 -4.331079 -17.249481 15.102636 -19.143364 4.241247 -4.681591 6.859931 -1.566501 0.000000 -0.000009 0.000002 -9.108287 -0.517868 2.259839 -2.800868 10.701288 6.668651 0.041342 -0.739892 6.324107 0.026144 -0.614243 4.963487 0.000004 -0.000004 -0.000005 -9.532503 -0.000060 -0.000018 0.208619 -1.629325 12.022994 0.376581 -2.204326 19.236302 0.153051 -1.502593 12.113060 -0.000002 -0.000001 -0.000001 -9.103599 -0.043069 -1.865125 2.392029 -6.385685 17.367730 0.805216 -3.270910 27.736802 0.065517 -1.856765 14.712043 -0.000002 -0.000006 -0.000004 -8.076703 -0.486726 -3.806273 4.114579 -9.433352 18.993060 1.080688 -3.790849 33.627760 0.286450 -2.137940 17.307774 0.000003 0.000001 -0.000007 4.570448 11.014701 -2.160853 0.538126 3.334297 -7.205108 -9.160673 4.964698 -65.956828 -0.028270 -0.198583 -0.000048 46.571372 -8.822696 9.356991 2.466125 -1.576220 2.681731 -5.660455 6.491169 2.287245 18.656358 15.883325 1.170994 -7.856568 -6.277812 6.312359 -0.000001 -0.000003 0.000003 9.109298 -0.518046 2.259869 0.241263 1.985194 2.207869 0.176880 1.558791 -12.931398 0.056068 0.871744 -7.306790 -0.000001 0.000001 -0.000002 9.533404 0.000029 0.000040 1.392662 4.254926 -18.372674 0.138539 1.380656 -11.499692 0.095836 1.148536 -9.542791 0.000001 -0.000001 0.000001 9.104546 -0.043046 -1.865077 3.515070 6.580055 -31.795572 0.314752 2.061156 -17.351127 0.190745 1.611936 -13.484932 -0.000001 0.000001 0.000001 8.077793 -0.486891 -3.806262 5.674763 7.862787 -51.895480 0.685683 -1.302928 -24.364999 0.153959 1.254764 -10.551011 -0.000001 -0.000006 0.000002 -8.207787 -6.751669 -1.599562 -6.217151 -2.544788 4.987635 22.835991 -9.236634 -5.845557 -13.136759 -21.946581 5.399680 -1.050852 0.000032 0.000002 0.000000 -0.000000 -0.000000 8.207790 -6.751713 -1.599557 -9.227763 12.321245 7.586264 26.875420 -5.541793 2.318861 -16.860686 0.814434 -3.548859 -2.669928 -0.000001 0.000002 -0.000000 0.000000 -0.000000 
-3.140781 100.940521 11.831989 -1.645164 3.585808 -2.132776 -0.000005 10.181592 0.131521 0.070372 1.062493 0.403720 -0.075225 0.566648 0.070948 -0.074667 0.567149 0.067654 0.000000 16.740396 -2.049032 4.654665 -1.747675 2.295946 0.000000 9.617856 1.685011 -6.298259 -6.428393 -0.590240 0.000002 22.037323 7.501097 0.000002 -0.000000 -0.000000 -4.569969 11.014914 -2.160882 0.558959 5.430643 9.762699 2.335762 -8.323229 64.444085 -1.213186 8.461529 0.089732 41.555913 30.278177 -13.617942 -2.464808 -1.573997 2.681839 -13.058368 -4.353913 -17.185702 15.136876 -19.194695 4.251937 -4.679320 6.855567 -1.566819 0.000006 -0.000008 0.000004 -9.108284 -0.517865 2.259833 -2.803518 10.664271 6.718492 0.041538 -0.741654 6.338656 0.026148 -0.614261 4.963506 0.000002 -0.000006 -0.000002 -9.532497 -0.000045 -0.000023 0.208559 -1.631039 12.069320 0.375907 -2.202344 19.219433 0.152526 -1.499779 12.089850 -0.000002 -0.000001 0.000005 -9.103592 -0.043073 -1.865132 2.387749 -6.373396 17.391297 0.805417 -3.271316 27.740520 0.065042 -1.852992 14.682197 -0.000004 -0.000000 0.000002 -8.076682 -0.486725 -3.806277 4.105544 -9.421833 18.971525 1.081207 -3.791673 33.635547 0.286141 -2.136919 17.298941 -0.000002 -0.000004 0.000000 4.570448 11.014713 -2.160853 0.538639 3.325189 -7.212607 -9.132678 4.993606 -65.915150 -0.028271 -0.198689 -0.000035 46.548412 -8.788335 9.345881 2.466133 -1.576208 2.681731 -5.651897 6.504572 2.246604 18.659952 15.892643 1.169543 -7.851529 -6.262307 6.310355 0.000005 0.000001 -0.000003 9.109310 -0.518052 2.259872 0.245442 2.012137 2.150152 0.175594 1.553206 -12.883886 0.055966 0.870950 -7.300287 0.000001 0.000000 0.000000 9.533414 0.000024 0.000044 1.390293 4.248983 -18.396838 0.138656 1.381105 -11.503691 0.095861 1.148649 -9.543727 -0.000000 -0.000002 0.000003 9.104537 -0.043053 -1.865075 3.510523 6.571096 -31.842298 0.315639 2.063992 -17.375822 0.191062 1.613286 -13.496278 -0.000000 0.000002 0.000002 8.077791 -0.486884 -3.806262 5.670694 7.858482 -51.929993 0.685886 -1.302523 -24.368699 0.154275 1.256195 -10.563263 -0.000001 -0.000000 -0.000002 -8.207788 -6.751678 -1.599561 -6.263204 -2.571305 4.913523 22.859566 -9.241944 -5.822702 -13.161687 -21.942596 5.423460 -1.071306 -0.000034 -0.000004 0.000000 0.000001 -0.000000 8.207790 -6.751701 -1.599555 -9.249089 12.304074 7.527450 26.859915 -5.552118 2.306849 -16.874583 0.809081 -3.518417 -2.661659 -0.000005 -0.000002 0.000000 0.000001 0.000000 
-3.093328 100.933235 11.888443 -1.596356 3.678410 -2.047579 -0.000006 10.181595 0.131522 0.059125 1.030728 0.377609 -0.082678 0.549789 0.060253 -0.082142 0.550227 0.057019 -0.000000 16.740414 -2.049037 4.656075 -1.751876 2.256427 0.000000 9.617891 1.685014 -6.354930 -6.454980 -0.697869 0.000002 22.037354 7.501092 0.000001 0.000000 0.000000 -4.569968 11.014911 -2.160885 0.559044 5.441477 9.748503 2.352773 -8.328761 64.430827 -1.208233 8.427542 0.089053 41.618303 30.266624 -13.712337 -2.464802 -1.573970 2.681844 -13.043736 -4.388129 -17.162023 15.182916 -19.263676 4.266378 -4.668967 6.835686 -1.568270 0.000005 -0.000005 -0.000003 -9.108277 -0.517863 2.259835 -2.800461 10.622492 6.747945 0.041827 -0.744338 6.360873 0.026139 -0.614254 4.963510 -0.000001 0.000003 -0.000003 -9.532517 -0.000055 -0.000019 0.217060 -1.653513 12.050009 0.376114 -2.202947 19.224561 0.152474 -1.501454 12.102568 -0.000005 -0.000002 -0.000001 -9.103587 -0.043081 -1.865127 2.388952 -6.373673 17.405829 0.805262 -3.271021 27.738011 0.065278 -1.853680 14.688192 -0.000002 -0.000003 0.000001 -8.076686 -0.486708 -3.806278 4.120772 -9.423468 19.075711 1.082247 -3.793359 33.651983 0.286207 -2.137063 17.300048 0.000001 0.000001 -0.000004 4.570447 11.014713 -2.160857 0.538499 3.376308 -7.216615 -9.120334 5.049255 -65.886511 -0.028431 -0.199747 -0.000037 46.555249 -8.791748 9.349038 2.466135 -1.576208 2.681734 -5.658422 6.493160 2.290269 18.668449 15.914865 1.166145 -7.849701 -6.256637 6.309608 -0.000000 0.000001 0.000002 9.109323 -0.518045 2.259874 0.244029 1.999309 2.151897 0.178848 1.567226 -13.003240 0.056324 0.873682 -7.323080 -0.000001 0.000001 -0.000001 9.533427 0.000010 0.000044 1.399919 4.268088 -18.397398 0.138734 1.381520 -11.507113 0.095866 1.148686 -9.544093 0.000004 0.000001 0.000001 9.104546 -0.043054 -1.865074 3.505957 6.565868 -31.840621 0.315880 2.064789 -17.382618 0.190936 1.612707 -13.491503 -0.000002 0.000001 0.000002 8.077812 -0.486887 -3.806260 5.668128 7.858898 -51.897147 0.686748 -1.300789 -24.384701 0.154122 1.255589 -10.558073 0.000003 0.000000 0.000009 -8.207787 -6.751657 -1.599560 -6.306449 -2.652369 4.744168 22.945534 -9.255272 -5.757178 -13.238655 -21.902028 5.446481 -1.093751 -0.000019 0.000004 0.000000 0.000001 -0.000000 8.207788 -6.751689 -1.599556 -9.219464 12.235276 7.375863 26.824993 -5.550471 2.324132 -16.889209 0.804012 -3.498030 -2.697089 -0.000006 0.000000 -0.000000 -0.000000 -0.000000 
